<svg version="1.1" xmlns="http://www.w3.org/2000/svg" style="display: block;" viewBox="0 0 2048 2048" width="512" height="512" preserveAspectRatio="none">
<path transform="translate(0,0)" fill="rgb(151,21,25)" d="M 1318.01 379.608 C 1420.58 209.078 1603.39 70.8181 1796.01 19.8435 C 1833.49 9.92332 1872.66 -0.745623 1909.48 20.9371 C 1967.27 54.6103 1968.45 144.14 1907.68 174.935 C 1887.94 184.941 1857.44 188.604 1835.12 195.959 C 1712.69 236.295 1605.24 312.486 1524.14 412.359 C 1507.54 432.795 1491.87 456.57 1476.24 478.095 C 1529.69 540.742 1563.15 631.914 1558.6 715.325 C 1557.49 735.805 1549.81 744.308 1546.63 761.715 C 1502.5 1039.16 1270.78 1342.66 1079.13 1539.86 C 1018.18 1602.36 954.002 1661.61 886.847 1717.38 C 746.969 1833.64 587.96 1940.27 417.974 2006.2 C 363.711 2027.25 305.459 2049.26 246.483 2043.49 C 203.232 2039.34 163.481 2017.92 136.213 1984.09 C 110.253 1952.06 101.23 1912.39 105.881 1871.87 C 108.645 1847.52 117.006 1824.13 130.31 1803.55 C 143.123 1783.48 157.908 1767.5 173.611 1749.86 L 239.16 1677.6 C 294.148 1616.4 346.662 1553.03 396.574 1487.62 C 487.725 1366.36 569.016 1237.99 639.669 1103.75 C 672.878 1039.83 703.9 974.808 732.682 908.782 C 799.141 760.289 879.989 565.142 1010.27 460.978 C 1018.98 453.124 1022.44 439.949 1032.03 432.734 C 1040.14 426.636 1049.1 421.059 1057.77 415.785 C 1112.26 383.158 1174.78 366.39 1238.28 367.371 C 1259.3 367.545 1298.82 371.019 1318.01 379.608 z"/>
<path transform="translate(0,0)" fill="rgb(239,58,58)" d="M 1072.12 539.036 C 1106.38 531.806 1133.95 533.729 1149.4 571.118 C 1151.55 576.324 1148.8 611.103 1147.71 617.529 C 1134.21 697.203 1188.37 770.439 1273.34 757.42 C 1324.89 749.521 1354.74 684.872 1405.89 716.576 C 1408.22 718.094 1411.09 720.672 1413.08 722.506 C 1409.44 730.071 1406.97 743.954 1404.56 752.72 C 1400.07 769.017 1395.18 785.198 1389.87 801.247 C 1370.85 861.283 1346.93 919.654 1318.35 975.77 C 1263.24 1081.45 1190.49 1188.6 1115.24 1281.27 C 1028.86 1386.35 933.552 1483.75 830.378 1572.39 C 787.124 1609.73 745.405 1644.61 699.372 1678.94 C 667.083 1702.63 633.958 1725.16 600.06 1746.48 C 580.683 1758.81 561.555 1770.55 541.891 1782.35 C 484.285 1816.92 421.956 1846.41 359.67 1871.3 C 325.536 1884.94 260.311 1905.39 242.359 1858.45 C 238.882 1849.64 240.123 1838.81 237.344 1831.29 C 261.447 1801.39 287.432 1775.54 312.482 1747.25 C 338.45 1717.92 365.333 1686.73 390.473 1656.84 C 476.667 1552.98 555.799 1443.46 627.338 1329.02 C 681.73 1241.4 731.25 1150.85 775.673 1057.78 C 792.001 1023.35 807.944 988.74 823.5 953.952 C 883.199 819.003 959.941 638.122 1072.12 539.036 z"/>
<path transform="translate(0,0)" fill="rgb(62,113,11)" d="M 1318.01 379.608 C 1420.58 209.078 1603.39 70.8181 1796.01 19.8435 C 1833.49 9.92332 1872.66 -0.745623 1909.48 20.9371 C 1967.27 54.6103 1968.45 144.14 1907.68 174.935 C 1887.94 184.941 1857.44 188.604 1835.12 195.959 C 1712.69 236.295 1605.24 312.486 1524.14 412.359 C 1507.54 432.795 1491.87 456.57 1476.24 478.095 C 1529.69 540.742 1563.15 631.914 1558.6 715.325 C 1557.49 735.805 1549.81 744.308 1546.63 761.715 L 1545.06 760.39 C 1542.47 761.143 1532.4 768.263 1529.57 770.072 C 1498.24 790.161 1472.73 785.858 1444.48 765.384 C 1433.26 751.817 1425.12 736.071 1413.08 722.506 C 1411.09 720.672 1408.22 718.094 1405.89 716.576 C 1354.74 684.872 1324.89 749.521 1273.34 757.42 C 1188.37 770.439 1134.21 697.203 1147.71 617.529 C 1148.8 611.103 1151.55 576.324 1149.4 571.118 C 1133.95 533.729 1106.38 531.806 1072.12 539.036 C 1061.37 536.894 1055.67 537.912 1044.07 532.25 C 1024.91 523.293 1015.84 503.079 1013.07 483.188 C 1012.12 476.415 1012.75 467.217 1010.27 460.978 C 1018.98 453.124 1022.44 439.949 1032.03 432.734 C 1040.14 426.636 1049.1 421.059 1057.77 415.785 C 1112.26 383.158 1174.78 366.39 1238.28 367.371 C 1259.3 367.545 1298.82 371.019 1318.01 379.608 z"/>
<path transform="translate(0,0)" fill="rgb(147,216,40)" d="M 1212.08 465.42 C 1255.31 461.077 1298.9 471.154 1336.99 491.643 C 1391.87 520.763 1432.6 570.892 1449.87 630.573 C 1431.12 619.501 1413.24 611.928 1391.63 609.377 C 1355.54 605.945 1328.82 615.508 1297.86 634.48 C 1286.76 641.283 1269.44 657.774 1256.45 661.749 C 1254.54 661.699 1251.12 659.8 1249.86 658.799 C 1242.41 653.058 1243.73 641.226 1245.03 632.925 C 1251.2 593.561 1250.39 557.349 1233.89 520.284 C 1223.63 497.223 1209.69 483.421 1190.15 467.351 L 1212.08 465.42 z"/>
<path transform="translate(0,0)" fill="rgb(222,37,38)" d="M 1413.08 722.506 C 1425.12 736.071 1433.26 751.817 1444.48 765.384 C 1399.19 986.647 1220.85 1237.62 1070.35 1403.12 C 1005.07 1474.66 935.768 1542.43 862.783 1606.1 C 828.182 1637.05 792.382 1666.64 755.468 1694.8 C 737.074 1709.06 718.671 1723.68 699.224 1736.51 C 663.376 1760.16 628.83 1785.48 592.103 1807.9 C 568.554 1822.27 544.412 1836.48 520.07 1849.47 C 467.005 1877.77 311.259 1955.8 254.464 1944.92 C 237.306 1941.63 220.088 1931.72 210.725 1916.72 C 203.552 1905.23 202.472 1889.98 205.561 1876.94 C 209.724 1859.36 224.144 1843.08 237.344 1831.29 C 240.123 1838.81 238.882 1849.64 242.359 1858.45 C 260.311 1905.39 325.536 1884.94 359.67 1871.3 C 421.956 1846.41 484.285 1816.92 541.891 1782.35 C 561.555 1770.55 580.683 1758.81 600.06 1746.48 C 633.958 1725.16 667.083 1702.63 699.372 1678.94 C 745.405 1644.61 787.124 1609.73 830.378 1572.39 C 933.552 1483.75 1028.86 1386.35 1115.24 1281.27 C 1190.49 1188.6 1263.24 1081.45 1318.35 975.77 C 1346.93 919.654 1370.85 861.283 1389.87 801.247 C 1395.18 785.198 1400.07 769.017 1404.56 752.72 C 1406.97 743.954 1409.44 730.071 1413.08 722.506 z"/>
</svg>